<svg width="60" height="60" viewBox="0 0 60 60" fill="none" xmlns="http://www.w3.org/2000/svg">
<g filter="url(#filter0_b_9_798)">
<circle cx="30" cy="30" r="30" fill="white" fill-opacity="0.1"/>
</g>
<path d="M36 36.86H35.24C34.44 36.86 33.68 37.17 33.12 37.73L31.41 39.42C30.63 40.19 29.36 40.19 28.58 39.42L26.87 37.73C26.31 37.17 25.54 36.86 24.75 36.86H24C22.34 36.86 21 35.53 21 33.89V22.97C21 21.33 22.34 20 24 20H36C37.66 20 39 21.33 39 22.97V33.88C39 35.52 37.66 36.86 36 36.86Z" stroke="#F3DF29" stroke-width="1.5" stroke-miterlimit="10" stroke-linecap="round" stroke-linejoin="round"/>
<path d="M30.0701 26.9498C30.0301 26.9498 29.97 26.9498 29.92 26.9498C28.87 26.9098 28.04 26.0598 28.04 24.9998C28.04 23.9198 28.9101 23.0498 29.9901 23.0498C31.0701 23.0498 31.9401 23.9298 31.9401 24.9998C31.9501 26.0598 31.1201 26.9198 30.0701 26.9498Z" stroke="#F3DF29" stroke-width="1.5" stroke-linecap="round" stroke-linejoin="round"/>
<path d="M27.2504 29.96C25.9204 30.85 25.9204 32.3 27.2504 33.19C28.7604 34.2 31.2404 34.2 32.7504 33.19C34.0804 32.3 34.0804 30.85 32.7504 29.96C31.2404 28.96 28.7704 28.96 27.2504 29.96Z" stroke="#F3DF29" stroke-width="1.5" stroke-linecap="round" stroke-linejoin="round"/>
<defs>
<filter id="filter0_b_9_798" x="-24" y="-24" width="108" height="108" filterUnits="userSpaceOnUse" color-interpolation-filters="sRGB">
<feFlood flood-opacity="0" result="BackgroundImageFix"/>
<feGaussianBlur in="BackgroundImageFix" stdDeviation="12"/>
<feComposite in2="SourceAlpha" operator="in" result="effect1_backgroundBlur_9_798"/>
<feBlend mode="normal" in="SourceGraphic" in2="effect1_backgroundBlur_9_798" result="shape"/>
</filter>
</defs>
</svg>
