<svg width="60" height="60" viewBox="0 0 60 60" fill="none" xmlns="http://www.w3.org/2000/svg">
<g filter="url(#filter0_b_19_1333)">
<circle cx="30" cy="30" r="30" fill="white" fill-opacity="0.1"/>
</g>
<path d="M38.5902 28.5501V25.1201C38.5902 23.8901 37.6502 22.5301 36.5002 22.1001L31.5102 20.2301C30.6802 19.9201 29.3202 19.9201 28.4902 20.2301L23.5002 22.1101C22.3502 22.5401 21.4102 23.9001 21.4102 25.1201V32.5501C21.4102 33.7301 22.1902 35.2801 23.1402 35.9901L27.4402 39.2001C28.1402 39.7401 29.0702 40.0001 30.0002 40.0001" stroke="#F3DF29" stroke-width="1.5" stroke-linecap="round" stroke-linejoin="round"/>
<path d="M34 38C36.2091 38 38 36.2091 38 34C38 31.7909 36.2091 30 34 30C31.7909 30 30 31.7909 30 34C30 36.2091 31.7909 38 34 38Z" stroke="#F3DF29" stroke-width="1.5" stroke-linecap="round" stroke-linejoin="round"/>
<path d="M38.9955 39H39.0045" stroke="#F3DF29" stroke-width="2" stroke-linecap="round" stroke-linejoin="round"/>
<defs>
<filter id="filter0_b_19_1333" x="-24" y="-24" width="108" height="108" filterUnits="userSpaceOnUse" color-interpolation-filters="sRGB">
<feFlood flood-opacity="0" result="BackgroundImageFix"/>
<feGaussianBlur in="BackgroundImageFix" stdDeviation="12"/>
<feComposite in2="SourceAlpha" operator="in" result="effect1_backgroundBlur_19_1333"/>
<feBlend mode="normal" in="SourceGraphic" in2="effect1_backgroundBlur_19_1333" result="shape"/>
</filter>
</defs>
</svg>
